<svg width="454" height="79" viewBox="0 0 454 79" fill="none" xmlns="http://www.w3.org/2000/svg">
<path d="M266.015 7.38916C266.015 7.38916 276.656 7.38918 283.454 18.0298C287.832 24.8814 290.132 29.7159 293.208 37.242C297.483 47.7008 299.733 60.6899 300.837 69.2291C301.472 74.1456 297.581 78.3266 292.623 78.3267C287.886 78.3267 284.045 74.4861 284.045 69.7487V65.617C284.045 63.0052 281.928 60.8879 279.316 60.8879H253.306C250.694 60.8879 248.577 63.0052 248.577 65.617V69.8249C248.577 74.4068 244.895 78.1383 240.313 78.1997C235.281 78.267 231.358 73.9239 232.157 68.9555C233.539 60.3729 236.065 47.4852 240.005 37.242C242.961 29.5571 245.437 24.6185 249.463 18.0298C255.958 7.40281 265.99 7.38918 266.015 7.38916ZM269.965 27.0448C268.05 24.661 264.519 24.6109 262.564 26.9622C261.087 28.7387 259.472 30.8472 258.32 32.8084C257.24 34.6461 256.272 37.0811 255.498 39.3468C254.387 42.6009 256.905 45.8136 260.344 45.8136H272.254C275.791 45.8135 278.324 42.427 277.054 39.1251C276.251 37.0351 275.293 34.8273 274.281 33.104C273.108 31.1076 271.459 28.9036 269.965 27.0448Z" fill="#272F39"/>
<path d="M345.229 7.68481C363.512 7.68482 378.333 22.5061 378.333 40.789V44.927C378.333 63.2099 363.512 78.0312 345.229 78.0312H319.81C314.26 78.0312 309.76 73.5319 309.76 67.9817V17.7343C309.76 12.1841 314.26 7.68481 319.81 7.68481H345.229ZM331.633 23.6458C328.694 23.6458 326.312 26.0277 326.312 28.9661V56.7499C326.312 59.6882 328.694 62.0702 331.633 62.0702H342.569C353.18 62.0702 361.781 53.4686 361.781 42.858C361.781 32.2474 353.18 23.6458 342.569 23.6458H331.633Z" fill="#272F39"/>
<path d="M48.7695 23.6458C45.015 23.6458 41.9714 26.6894 41.9714 30.4439V70.3463C41.9714 74.5905 38.5307 78.0312 34.2865 78.0312H33.6953C29.4511 78.0312 26.0104 74.5905 26.0104 70.3463V29.5572C26.0104 26.2924 23.3638 23.6458 20.099 23.6458H7.6849C3.44065 23.6458 9.52155e-08 20.2051 0 15.9609V15.3697C9.52154e-08 11.1255 3.44065 7.68481 7.6849 7.68481H60.2969C64.5411 7.68481 67.9818 11.1255 67.9818 15.3697V15.9609C67.9818 20.2051 64.5411 23.6458 60.2969 23.6458H48.7695Z" fill="#272F39"/>
<path d="M202.467 7.68481C213.405 7.68481 222.271 16.5511 222.271 27.4882V31.3006C222.271 31.3602 222.269 31.4196 222.269 31.479C222.269 31.528 222.271 31.577 222.271 31.6262V70.0507C222.271 74.4582 218.698 78.0312 214.29 78.0312C209.883 78.0312 206.31 74.4582 206.31 70.0507V28.256C206.31 25.6442 204.193 23.5268 201.581 23.5268C198.969 23.5268 196.852 25.6442 196.852 28.256V47.5872C196.852 48.4492 196.714 49.2791 196.461 50.0568C196.454 50.0941 196.449 50.1316 196.442 50.1688C196.436 50.1671 196.431 50.1653 196.426 50.1636C195.354 53.3068 192.377 55.5676 188.871 55.5676C184.464 55.5676 180.891 51.9946 180.891 47.5872V28.256C180.891 25.6442 178.773 23.5268 176.161 23.5268C173.55 23.5268 171.432 25.6442 171.432 28.256V69.7551C171.432 74.3259 167.727 78.0312 163.156 78.0312C158.585 78.0312 154.88 74.3259 154.88 69.7551V31.9218C154.88 31.8386 154.882 31.7556 154.884 31.673C154.882 31.5491 154.88 31.425 154.88 31.3006V27.4882C154.88 16.5511 163.746 7.68481 174.684 7.68481C180.096 7.68481 185.001 9.85664 188.576 13.3757C192.15 9.85664 197.055 7.68481 202.467 7.68481Z" fill="#272F39"/>
<path d="M77.4401 31.3307C77.4401 18.9245 87.4974 8.86719 99.9036 8.86719H122.958C135.365 8.86719 145.422 18.9245 145.422 31.3307V53.7943C145.422 67.18 134.571 78.0312 121.185 78.0312H101.677C88.2914 78.0312 77.4401 67.18 77.4401 53.7943V31.3307Z" fill="#FB5331"/>
<path d="M110.84 9.16276L110.84 0L108.18 6.5026L98.1302 5.61589L106.702 9.16276H110.84Z" fill="#12813B"/>
<path d="M110.84 8.86702L110.84 18.0298L108.18 11.5272L98.1302 12.4139L106.702 8.86702H110.84Z" fill="#12813B"/>
<path d="M110.84 8.86702L110.84 18.0298L113.5 11.5272L123.549 12.4139L114.978 8.86702H110.84Z" fill="#12813B"/>
<path d="M110.84 9.16276L110.84 0L113.5 6.5026L123.549 5.61589L114.978 9.16276H110.84Z" fill="#12813B"/>
<path d="M386.018 31.3307C386.018 18.9245 396.075 8.86719 408.482 8.86719H431.536C443.943 8.86719 454 18.9245 454 31.3307V53.7943C454 67.18 443.149 78.0312 429.763 78.0312H410.255C396.869 78.0312 386.018 67.18 386.018 53.7943V31.3307Z" fill="#FB5331"/>
<path d="M419.418 9.16276L419.418 0L416.758 6.5026L406.708 5.61589L415.28 9.16276H419.418Z" fill="#12813B"/>
<path d="M419.418 8.86702L419.418 18.0298L416.758 11.5272L406.708 12.4139L415.28 8.86702H419.418Z" fill="#12813B"/>
<path d="M419.418 8.86702L419.418 18.0298L422.078 11.5272L432.128 12.4139L423.556 8.86702H419.418Z" fill="#12813B"/>
<path d="M419.418 9.16276L419.418 0L422.078 6.5026L432.128 5.61589L423.556 9.16276H419.418Z" fill="#12813B"/>
</svg>
